<svg xmlns="http://www.w3.org/2000/svg" xmlns:xlink="http://www.w3.org/1999/xlink" viewBox="0 0 455.65 375.28"><defs><radialGradient id="Gradiente_sem_nome_48" cx="0.17" cy="26.5" r="11.56" gradientTransform="translate(13.29 -13.29)" gradientUnits="userSpaceOnUse"><stop offset="0.02" stop-color="#fff"/><stop offset="0.36" stop-color="#00b0da"/><stop offset="1" stop-color="#007fb6" stop-opacity="0"/></radialGradient><clipPath id="clip-path"><rect x="124.09" y="215.49" width="6.46" height="6.46" fill="none"/></clipPath><clipPath id="clip-path-2"><rect x="183.54" y="255.23" width="5.3" height="5.3" fill="none"/></clipPath><clipPath id="clip-path-3"><rect x="339.64" y="278.04" width="11.76" height="11.76" fill="none"/></clipPath><clipPath id="clip-path-4"><rect x="355.25" y="257.53" width="13.9" height="13.9" fill="none"/></clipPath><clipPath id="clip-path-5"><rect x="283.55" y="248.22" width="10.4" height="10.4" fill="none"/></clipPath><clipPath id="clip-path-6"><rect x="217.75" y="283.04" width="6.77" height="6.77" fill="none"/></clipPath><clipPath id="clip-path-7"><rect x="155.43" y="298.9" width="9.28" height="9.28" fill="none"/></clipPath><clipPath id="clip-path-8"><rect x="140.66" y="290.77" width="10.22" height="10.22" fill="none"/></clipPath><clipPath id="clip-path-9"><rect x="156.43" y="262.77" width="6.82" height="6.82" fill="none"/></clipPath><clipPath id="clip-path-10"><rect x="287" y="212.23" width="11.37" height="11.37" fill="none"/></clipPath><clipPath id="clip-path-11"><rect x="119.2" y="228.78" width="7.48" height="7.48" fill="none"/></clipPath><clipPath id="clip-path-12"><rect x="34.81" y="204.81" width="12.38" height="12.38" fill="none"/></clipPath><clipPath id="clip-path-13"><rect x="60.27" y="194.07" width="11.23" height="11.23" fill="none"/></clipPath><clipPath id="clip-path-14"><rect x="220.73" y="198.15" width="2.81" height="2.81" fill="none"/></clipPath><clipPath id="clip-path-15"><rect x="341.65" y="181.36" width="10.8" height="10.8" fill="none"/></clipPath><clipPath id="clip-path-16"><rect x="295.93" y="161.66" width="7.2" height="7.2" fill="none"/></clipPath><clipPath id="clip-path-17"><rect x="180.08" y="161.42" width="4.45" height="4.45" fill="none"/></clipPath><clipPath id="clip-path-18"><rect x="107.79" y="164.04" width="9.51" height="9.51" fill="none"/></clipPath><clipPath id="clip-path-19"><rect x="160.93" y="157.04" width="5.03" height="5.03" fill="none"/></clipPath><clipPath id="clip-path-20"><rect x="306.76" y="114.07" width="6.95" height="6.95" fill="none"/></clipPath><clipPath id="clip-path-21"><rect x="265.54" y="107.04" width="7.07" height="7.07" fill="none"/></clipPath><clipPath id="clip-path-22"><rect x="178.04" y="94.04" width="6.82" height="6.82" fill="none"/></clipPath><clipPath id="clip-path-23"><rect x="242.03" y="139.85" width="6.14" height="6.14" fill="none"/></clipPath><clipPath id="clip-path-24"><rect x="175.84" y="174.8" width="3.68" height="3.68" fill="none"/></clipPath><clipPath id="clip-path-25"><rect x="251.06" y="207.21" width="6.33" height="6.33" fill="none"/></clipPath><clipPath id="clip-path-26"><rect x="216.66" y="215.07" width="3.63" height="3.63" fill="none"/></clipPath><clipPath id="clip-path-27"><rect x="159.07" y="205.78" width="4.41" height="4.41" fill="none"/></clipPath><clipPath id="clip-path-28"><rect x="127.99" y="106.46" width="7.93" height="7.93" fill="none"/></clipPath><clipPath id="clip-path-29"><rect x="177.59" y="227.33" width="10.57" height="10.57" fill="none"/></clipPath><clipPath id="clip-path-30"><rect x="168.63" y="244.19" width="8.67" height="8.67" fill="none"/></clipPath><clipPath id="clip-path-31"><rect x="405.38" y="320.45" width="19.24" height="19.24" fill="none"/></clipPath><clipPath id="clip-path-32"><rect x="407.66" y="280.71" width="22.74" height="22.74" fill="none"/></clipPath><clipPath id="clip-path-33"><rect x="297.94" y="265.61" width="17.01" height="17.01" fill="none"/></clipPath><clipPath id="clip-path-34"><rect x="219.52" y="312.41" width="11.08" height="11.08" fill="none"/></clipPath><clipPath id="clip-path-35"><rect x="122.92" y="354.51" width="15.18" height="15.18" fill="none"/></clipPath><clipPath id="clip-path-36"><rect x="112.15" y="330.36" width="16.73" height="16.73" fill="none"/></clipPath><clipPath id="clip-path-37"><rect x="152.93" y="232.81" width="11.16" height="11.16" fill="none"/></clipPath><clipPath id="clip-path-38"><rect x="292.1" y="194.46" width="18.6" height="18.6" fill="none"/></clipPath><clipPath id="clip-path-39"><rect x="162.33" y="217.73" width="12.24" height="12.24" fill="none"/></clipPath><clipPath id="clip-path-40"><rect y="198.26" width="20.26" height="20.26" fill="none"/></clipPath><clipPath id="clip-path-41"><rect x="118.64" y="201.88" width="18.38" height="18.38" fill="none"/></clipPath><clipPath id="clip-path-42"><rect x="207.65" y="211.71" width="4.59" height="4.59" fill="none"/></clipPath><clipPath id="clip-path-43"><rect x="374.25" y="179.79" width="17.68" height="17.68" fill="none"/></clipPath><clipPath id="clip-path-44"><rect x="326.41" y="143.53" width="11.78" height="11.78" fill="none"/></clipPath><clipPath id="clip-path-45"><rect x="145.45" y="145.96" width="7.28" height="7.28" fill="none"/></clipPath><clipPath id="clip-path-46"><rect x="106.97" y="162.02" width="15.57" height="15.57" fill="none"/></clipPath><clipPath id="clip-path-47"><rect x="98.48" y="162.41" width="8.23" height="8.23" fill="none"/></clipPath><clipPath id="clip-path-48"><rect x="346.36" y="92" width="11.37" height="11.37" fill="none"/></clipPath><clipPath id="clip-path-49"><rect x="282.62" y="70.87" width="11.57" height="11.57" fill="none"/></clipPath><clipPath id="clip-path-50"><rect x="173.73" y="58.96" width="11.15" height="11.15" fill="none"/></clipPath><clipPath id="clip-path-51"><rect x="252.9" y="105.64" width="10.04" height="10.04" fill="none"/></clipPath><clipPath id="clip-path-52"><rect x="150.66" y="164.19" width="6.02" height="6.02" fill="none"/></clipPath><clipPath id="clip-path-53"><rect x="263.64" y="196.21" width="10.36" height="10.36" fill="none"/></clipPath><clipPath id="clip-path-54"><rect x="203.98" y="240.22" width="5.94" height="5.94" fill="none"/></clipPath><clipPath id="clip-path-55"><rect x="188.32" y="218.1" width="7.21" height="7.21" fill="none"/></clipPath><clipPath id="clip-path-56"><rect x="110.86" y="90.87" width="12.98" height="12.98" fill="none"/></clipPath><radialGradient id="Gradiente_sem_nome_49" cx="28.72" cy="8.52" r="137.52" gradientTransform="matrix(-1.27, 0.13, -0.03, -1.28, 288.54, 191.05)" gradientUnits="userSpaceOnUse"><stop offset="0" stop-color="#9100da"/><stop offset="0.31" stop-color="#8f00c9" stop-opacity="0.69"/><stop offset="0.68" stop-color="#8d00bb" stop-opacity="0.32"/><stop offset="1" stop-color="#8c00b6" stop-opacity="0"/></radialGradient><symbol id="New_Symbol" data-name="New Symbol" viewBox="0 0 26.58 26.58"><circle cx="13.29" cy="13.29" r="13.29" fill="url(#Gradiente_sem_nome_48)"/></symbol></defs><title>Invest</title><g id="Camada_2" data-name="Camada 2"><g id="Camada_1-2" data-name="Camada 1"><g id="Camada_3" data-name="Camada 3"><g clip-path="url(#clip-path)"><use width="26.58" height="26.58" transform="translate(124.09 215.49) scale(0.24)" xlink:href="#New_Symbol"/></g><g clip-path="url(#clip-path-2)"><use width="26.58" height="26.58" transform="translate(183.54 255.23) scale(0.2)" xlink:href="#New_Symbol"/></g><g clip-path="url(#clip-path-3)"><use width="26.58" height="26.58" transform="translate(339.64 278.05) scale(0.44)" xlink:href="#New_Symbol"/></g><g clip-path="url(#clip-path-4)"><use width="26.58" height="26.58" transform="translate(355.25 257.54) scale(0.52)" xlink:href="#New_Symbol"/></g><g clip-path="url(#clip-path-5)"><use width="26.58" height="26.58" transform="translate(283.55 248.23) scale(0.39)" xlink:href="#New_Symbol"/></g><g clip-path="url(#clip-path-6)"><use width="26.58" height="26.58" transform="translate(217.75 283.05) scale(0.25)" xlink:href="#New_Symbol"/></g><g clip-path="url(#clip-path-7)"><use width="26.58" height="26.58" transform="translate(155.43 298.9) scale(0.35)" xlink:href="#New_Symbol"/></g><g clip-path="url(#clip-path-8)"><use width="26.58" height="26.58" transform="translate(140.66 290.77) scale(0.38)" xlink:href="#New_Symbol"/></g><g clip-path="url(#clip-path-9)"><use width="26.58" height="26.58" transform="translate(156.43 262.77) scale(0.26)" xlink:href="#New_Symbol"/></g><g clip-path="url(#clip-path-10)"><use width="26.58" height="26.58" transform="translate(287 212.24) scale(0.43)" xlink:href="#New_Symbol"/></g><g clip-path="url(#clip-path-11)"><use width="26.58" height="26.58" transform="translate(119.2 228.79) scale(0.28)" xlink:href="#New_Symbol"/></g><g clip-path="url(#clip-path-12)"><use width="26.58" height="26.58" transform="translate(34.81 204.82) scale(0.47)" xlink:href="#New_Symbol"/></g><g clip-path="url(#clip-path-13)"><use width="26.58" height="26.58" transform="translate(60.27 194.08) scale(0.42)" xlink:href="#New_Symbol"/></g><g clip-path="url(#clip-path-14)"><use width="26.58" height="26.58" transform="translate(220.73 198.15) scale(0.11)" xlink:href="#New_Symbol"/></g><g clip-path="url(#clip-path-15)"><use width="26.58" height="26.58" transform="translate(341.65 181.37) scale(0.41)" xlink:href="#New_Symbol"/></g><g clip-path="url(#clip-path-16)"><use width="26.58" height="26.58" transform="translate(295.93 161.67) scale(0.27)" xlink:href="#New_Symbol"/></g><g clip-path="url(#clip-path-17)"><use width="26.58" height="26.58" transform="translate(180.08 161.42) scale(0.17)" xlink:href="#New_Symbol"/></g><g clip-path="url(#clip-path-18)"><use width="26.58" height="26.58" transform="translate(107.79 164.05) scale(0.36)" xlink:href="#New_Symbol"/></g><g clip-path="url(#clip-path-19)"><use width="26.58" height="26.58" transform="translate(160.93 157.04) scale(0.19)" xlink:href="#New_Symbol"/></g><g clip-path="url(#clip-path-20)"><use width="26.58" height="26.58" transform="translate(306.76 114.07) scale(0.26)" xlink:href="#New_Symbol"/></g><g clip-path="url(#clip-path-21)"><use width="26.58" height="26.58" transform="translate(265.54 107.05) scale(0.27)" xlink:href="#New_Symbol"/></g><g clip-path="url(#clip-path-22)"><use width="26.58" height="26.58" transform="translate(178.04 94.04) scale(0.26)" xlink:href="#New_Symbol"/></g><g clip-path="url(#clip-path-23)"><use width="26.58" height="26.58" transform="translate(242.03 139.85) scale(0.23)" xlink:href="#New_Symbol"/></g><g clip-path="url(#clip-path-24)"><use width="26.58" height="26.58" transform="translate(175.84 174.8) scale(0.14)" xlink:href="#New_Symbol"/></g><g clip-path="url(#clip-path-25)"><use width="26.58" height="26.58" transform="translate(251.06 207.21) scale(0.24)" xlink:href="#New_Symbol"/></g><g clip-path="url(#clip-path-26)"><use width="26.58" height="26.58" transform="translate(216.66 215.08) scale(0.14)" xlink:href="#New_Symbol"/></g><g clip-path="url(#clip-path-27)"><use width="26.58" height="26.58" transform="translate(159.07 205.78) scale(0.17)" xlink:href="#New_Symbol"/></g><g clip-path="url(#clip-path-28)"><use width="26.58" height="26.58" transform="translate(127.99 106.46) scale(0.3)" xlink:href="#New_Symbol"/></g><g opacity="0.05"><g clip-path="url(#clip-path-29)"><use width="26.58" height="26.58" transform="translate(177.59 227.33) scale(0.4)" xlink:href="#New_Symbol"/></g><g clip-path="url(#clip-path-30)"><use width="26.58" height="26.58" transform="translate(168.63 244.19) scale(0.33)" xlink:href="#New_Symbol"/></g><g clip-path="url(#clip-path-31)"><use width="26.58" height="26.58" transform="translate(405.38 320.46) scale(0.72)" xlink:href="#New_Symbol"/></g><g clip-path="url(#clip-path-32)"><use width="26.58" height="26.58" transform="translate(407.66 280.72) scale(0.86)" xlink:href="#New_Symbol"/></g><g clip-path="url(#clip-path-33)"><use width="26.58" height="26.58" transform="translate(297.94 265.61) scale(0.64)" xlink:href="#New_Symbol"/></g><g clip-path="url(#clip-path-34)"><use width="26.58" height="26.58" transform="translate(219.52 312.41) scale(0.42)" xlink:href="#New_Symbol"/></g><g clip-path="url(#clip-path-35)"><use width="26.58" height="26.58" transform="translate(122.92 354.52) scale(0.57)" xlink:href="#New_Symbol"/></g><g clip-path="url(#clip-path-36)"><use width="26.58" height="26.58" transform="translate(112.15 330.37) scale(0.63)" xlink:href="#New_Symbol"/></g><g clip-path="url(#clip-path-37)"><use width="26.58" height="26.58" transform="translate(152.93 232.81) scale(0.42)" xlink:href="#New_Symbol"/></g><g clip-path="url(#clip-path-38)"><use width="26.58" height="26.58" transform="translate(292.1 194.46) scale(0.7)" xlink:href="#New_Symbol"/></g><g clip-path="url(#clip-path-39)"><use width="26.58" height="26.58" transform="translate(162.33 217.74) scale(0.46)" xlink:href="#New_Symbol"/></g><g clip-path="url(#clip-path-40)"><use width="26.58" height="26.58" transform="translate(0 198.27) scale(0.76)" xlink:href="#New_Symbol"/></g><g clip-path="url(#clip-path-41)"><use width="26.58" height="26.58" transform="translate(118.64 201.89) scale(0.69)" xlink:href="#New_Symbol"/></g><g clip-path="url(#clip-path-42)"><use width="26.58" height="26.58" transform="translate(207.65 211.71) scale(0.17)" xlink:href="#New_Symbol"/></g><g clip-path="url(#clip-path-43)"><use width="26.58" height="26.58" transform="translate(374.25 179.79) scale(0.66)" xlink:href="#New_Symbol"/></g><g clip-path="url(#clip-path-44)"><use width="26.58" height="26.58" transform="translate(326.41 143.53) scale(0.44)" xlink:href="#New_Symbol"/></g><g clip-path="url(#clip-path-45)"><use width="26.58" height="26.58" transform="translate(145.45 145.96) scale(0.27)" xlink:href="#New_Symbol"/></g><g clip-path="url(#clip-path-46)"><use width="26.58" height="26.58" transform="translate(106.97 162.02) scale(0.59)" xlink:href="#New_Symbol"/></g><g clip-path="url(#clip-path-47)"><use width="26.58" height="26.58" transform="translate(98.48 162.42) scale(0.31)" xlink:href="#New_Symbol"/></g><g clip-path="url(#clip-path-48)"><use width="26.58" height="26.58" transform="translate(346.36 92) scale(0.43)" xlink:href="#New_Symbol"/></g><g clip-path="url(#clip-path-49)"><use width="26.58" height="26.58" transform="translate(282.62 70.87) scale(0.44)" xlink:href="#New_Symbol"/></g><g clip-path="url(#clip-path-50)"><use width="26.58" height="26.58" transform="translate(173.73 58.96) scale(0.42)" xlink:href="#New_Symbol"/></g><g clip-path="url(#clip-path-51)"><use width="26.58" height="26.58" transform="translate(252.9 105.64) scale(0.38)" xlink:href="#New_Symbol"/></g><g clip-path="url(#clip-path-52)"><use width="26.58" height="26.58" transform="translate(150.66 164.2) scale(0.23)" xlink:href="#New_Symbol"/></g><g clip-path="url(#clip-path-53)"><use width="26.58" height="26.58" transform="translate(263.64 196.21) scale(0.39)" xlink:href="#New_Symbol"/></g><g clip-path="url(#clip-path-54)"><use width="26.58" height="26.58" transform="translate(203.98 240.22) scale(0.22)" xlink:href="#New_Symbol"/></g><g clip-path="url(#clip-path-55)"><use width="26.58" height="26.58" transform="translate(188.32 218.1) scale(0.27)" xlink:href="#New_Symbol"/></g><g clip-path="url(#clip-path-56)"><use width="26.58" height="26.58" transform="translate(110.86 90.88) scale(0.49)" xlink:href="#New_Symbol"/></g></g><path d="M52.08,179.06C50.74,286,140,373.86,251.43,375.26S454.3,291.09,455.64,184.13,369,68.23,257.55,66.83,53.42,72.1,52.08,179.06Z" opacity="0.52" fill="url(#Gradiente_sem_nome_49)" style="isolation:isolate"/><rect x="78.57" y="309.44" width="4.82" height="10.47" fill="#4e673e"/><rect x="80.98" y="309.44" width="2.41" height="10.47" fill="#9cce7c"/><rect x="83.39" y="309.44" width="2.41" height="10.47" fill="#759b5d"/><rect x="93.04" y="309.44" width="4.82" height="10.47" fill="#4e673e"/><rect x="95.45" y="309.44" width="2.41" height="10.47" fill="#9cce7c"/><rect x="97.86" y="309.44" width="2.41" height="10.47" fill="#759b5d"/><rect x="121.98" y="309.44" width="4.82" height="10.47" fill="#4e673e"/><rect x="124.39" y="309.44" width="2.41" height="10.47" fill="#9cce7c"/><rect x="126.8" y="309.44" width="2.41" height="10.47" fill="#759b5d"/><rect x="136.45" y="309.44" width="4.82" height="10.47" fill="#4e673e"/><rect x="138.86" y="309.44" width="2.41" height="10.47" fill="#9cce7c"/><rect x="141.27" y="309.44" width="2.41" height="10.47" fill="#759b5d"/><rect x="160.97" y="131.76" width="55.86" height="193.52" fill="#e3e3e3"/><rect x="165.06" y="142.64" width="3.66" height="171.75" fill="#54a5d5"/><rect x="172.37" y="142.64" width="3.66" height="171.75" fill="#54a5d5"/><rect x="179.69" y="142.64" width="3.66" height="171.75" fill="#54a5d5"/><rect x="187" y="142.64" width="3.66" height="171.75" fill="#54a5d5"/><rect x="194.32" y="142.64" width="3.66" height="171.75" fill="#54a5d5"/><rect x="201.64" y="142.64" width="3.66" height="171.75" fill="#54a5d5"/><rect x="208.95" y="142.64" width="3.66" height="171.75" fill="#54a5d5"/><rect x="160.97" y="205.44" width="55.86" height="5.58" fill="#e3e3e3"/><rect x="228.08" y="21.86" width="33.35" height="35.85" fill="#e3e3e3"/><rect x="232.17" y="26.66" width="3.66" height="26.31" fill="#54a5d5"/><rect x="239.49" y="26.66" width="3.66" height="26.31" fill="#54a5d5"/><rect x="246.8" y="26.66" width="3.66" height="26.31" fill="#54a5d5"/><rect x="254.12" y="26.66" width="3.66" height="26.31" fill="#54a5d5"/><rect x="272.69" y="131.76" width="55.86" height="193.52" fill="#e3e3e3"/><rect x="276.78" y="142.64" width="3.66" height="171.75" fill="#54a5d5"/><rect x="284.09" y="142.64" width="3.66" height="171.75" fill="#54a5d5"/><rect x="291.41" y="142.64" width="3.66" height="171.75" fill="#54a5d5"/><rect x="298.72" y="142.64" width="3.66" height="171.75" fill="#54a5d5"/><rect x="306.04" y="142.64" width="3.66" height="171.75" fill="#54a5d5"/><rect x="313.36" y="142.64" width="3.66" height="171.75" fill="#54a5d5"/><rect x="320.68" y="142.64" width="3.66" height="171.75" fill="#54a5d5"/><rect x="272.69" y="205.44" width="55.86" height="5.58" fill="#e3e3e3"/><polygon points="220.92 68.6 224.57 68.6 224.57 139.5 228.23 143.16 228.23 68.6 231.89 68.6 231.89 146.82 235.55 150.48 235.55 68.6 239.2 68.6 239.2 154.14 242.86 157.79 242.86 68.6 246.52 68.6 246.52 161.45 250.18 165.11 250.18 68.6 253.84 68.6 253.84 168.77 257.5 172.43 257.5 68.6 261.16 68.6 261.16 176.09 264.81 179.74 264.81 68.6 268.47 68.6 268.47 183.4 272.69 187.62 272.69 57.71 216.83 57.71 216.83 131.76 220.92 135.85 220.92 68.6" fill="#ccc"/><polygon points="268.47 183.4 268.47 314.39 264.81 314.39 264.81 179.74 261.16 176.09 261.16 314.39 257.5 314.39 257.5 172.43 253.84 168.77 253.84 314.39 250.18 314.39 250.18 165.11 246.52 161.45 246.52 314.39 242.86 314.39 242.86 157.79 239.2 154.14 239.2 314.39 235.55 314.39 235.55 150.48 231.89 146.82 231.89 314.39 228.23 314.39 228.23 143.16 224.57 139.5 224.57 314.39 220.92 314.39 220.92 135.85 216.83 131.76 216.83 325.28 272.69 325.28 272.69 187.62 268.47 183.4" fill="#aaa"/><polygon points="220.92 314.39 224.57 314.39 224.57 139.5 220.92 135.85 220.92 314.39" fill="#3f7ca0"/><polygon points="220.92 68.6 220.92 135.85 224.57 139.5 224.57 68.6 220.92 68.6" fill="#54a5d5"/><polygon points="228.23 314.39 231.89 314.39 231.89 146.82 228.23 143.16 228.23 314.39" fill="#3f7ca0"/><polygon points="228.23 68.6 228.23 143.16 231.89 146.82 231.89 68.6 228.23 68.6" fill="#54a5d5"/><polygon points="235.55 314.39 239.2 314.39 239.2 154.14 235.55 150.48 235.55 314.39" fill="#3f7ca0"/><polygon points="235.55 68.6 235.55 150.48 239.2 154.14 239.2 68.6 235.55 68.6" fill="#54a5d5"/><polygon points="242.86 314.39 246.52 314.39 246.52 161.45 242.86 157.79 242.86 314.39" fill="#3f7ca0"/><polygon points="242.86 68.6 242.86 157.79 246.52 161.45 246.52 68.6 242.86 68.6" fill="#54a5d5"/><polygon points="250.18 68.6 250.18 165.11 253.84 168.77 253.84 68.6 250.18 68.6" fill="#54a5d5"/><polygon points="250.18 314.39 253.84 314.39 253.84 168.77 250.18 165.11 250.18 314.39" fill="#3f7ca0"/><polygon points="257.5 314.39 261.16 314.39 261.16 176.09 257.5 172.43 257.5 314.39" fill="#3f7ca0"/><polygon points="257.5 68.6 257.5 172.43 261.16 176.09 261.16 68.6 257.5 68.6" fill="#54a5d5"/><polygon points="264.81 314.39 268.47 314.39 268.47 183.4 264.81 179.74 264.81 314.39" fill="#3f7ca0"/><polygon points="264.81 68.6 264.81 179.74 268.47 183.4 268.47 68.6 264.81 68.6" fill="#54a5d5"/><rect x="336.3" y="271.2" width="3.66" height="22.69" fill="#aaa"/><polygon points="354.37 265.62 350.93 262.19 350.93 265.62 354.37 265.62" fill="#aaa"/><polygon points="369.22 280.47 369.22 271.2 365.56 271.2 365.56 276.82 369.22 280.47" fill="#ccc"/><rect x="343.61" y="271.2" width="3.66" height="22.69" fill="#aaa"/><rect x="350.93" y="271.2" width="3.65" height="22.69" fill="#aaa"/><polygon points="347.27 265.62 347.27 258.53 343.61 254.87 343.61 265.62 347.27 265.62" fill="#aaa"/><polygon points="372.88 293.89 376.54 293.89 376.54 287.79 372.88 284.13 372.88 293.89" fill="#aaa"/><polygon points="361.9 271.2 359.94 271.2 361.9 273.16 361.9 271.2" fill="#ccc"/><polygon points="372.88 271.2 372.88 284.13 376.54 287.79 376.54 271.2 372.88 271.2" fill="#ccc"/><polygon points="359.94 271.2 358.25 271.2 358.25 293.89 361.9 293.89 361.9 273.16 359.94 271.2" fill="#aaa"/><polygon points="365.56 276.82 365.56 293.89 369.22 293.89 369.22 280.47 365.56 276.82" fill="#aaa"/><rect x="328.55" y="271.2" width="4.09" height="22.69" fill="#aaa"/><polygon points="380.2 293.89 382.63 293.89 380.2 291.45 380.2 293.89" fill="#aaa"/><polygon points="380.2 291.45 382.63 293.89 384.41 293.89 384.41 271.2 380.2 271.2 380.2 291.45" fill="#ccc"/><polygon points="339.96 250.7 343.61 250.7 343.61 254.87 347.27 258.53 347.27 250.7 350.93 250.7 350.93 262.19 354.37 265.62 354.58 265.62 354.58 250.7 358.25 250.7 358.25 265.62 361.9 265.62 361.9 250.7 365.56 250.7 365.56 265.62 369.22 265.62 369.22 250.7 372.88 250.7 372.88 265.62 376.54 265.62 376.54 250.7 380.2 250.7 380.2 265.62 384.41 265.62 384.41 239.81 328.55 239.81 339.96 251.21 339.96 250.7" fill="#ccc"/><polygon points="380.2 314.41 376.54 314.41 376.54 299.46 372.88 299.46 372.88 314.41 369.22 314.41 369.22 299.46 365.56 299.46 365.56 314.41 361.9 314.41 361.9 299.46 358.25 299.46 358.25 314.41 354.58 314.41 354.58 299.46 350.93 299.46 350.93 314.41 347.27 314.41 347.27 299.46 343.61 299.46 343.61 314.41 339.96 314.41 339.96 299.46 336.3 299.46 336.3 314.41 332.64 314.41 332.64 299.46 328.55 299.46 328.55 325.28 384.41 325.28 384.41 299.46 380.2 299.46 380.2 314.41" fill="#aaa"/><polygon points="332.64 250.7 336.3 250.7 336.3 265.62 339.96 265.62 339.96 251.21 328.55 239.81 328.55 265.62 332.64 265.62 332.64 250.7" fill="#aaa"/><rect x="332.64" y="299.46" width="3.66" height="14.95" fill="#3f7ca0"/><rect x="332.64" y="271.2" width="3.66" height="22.69" fill="#3f7ca0"/><rect x="332.64" y="250.7" width="3.66" height="14.92" fill="#3f7ca0"/><polygon points="343.61 250.7 339.96 250.7 339.96 251.21 343.61 254.87 343.61 250.7" fill="#54a5d5"/><polygon points="343.61 254.87 339.96 251.21 339.96 265.62 343.61 265.62 343.61 254.87" fill="#3f7ca0"/><rect x="339.96" y="299.46" width="3.65" height="14.95" fill="#3f7ca0"/><rect x="339.96" y="271.2" width="3.65" height="22.69" fill="#3f7ca0"/><polygon points="350.93 250.7 347.27 250.7 347.27 258.53 350.93 262.19 350.93 250.7" fill="#54a5d5"/><rect x="347.27" y="271.2" width="3.66" height="22.69" fill="#3f7ca0"/><polygon points="350.93 265.62 350.93 262.19 347.27 258.53 347.27 265.62 350.93 265.62" fill="#3f7ca0"/><rect x="347.27" y="299.46" width="3.66" height="14.95" fill="#3f7ca0"/><rect x="354.58" y="299.46" width="3.66" height="14.95" fill="#3f7ca0"/><rect x="354.58" y="271.2" width="3.66" height="22.69" fill="#3f7ca0"/><rect x="354.58" y="250.7" width="3.66" height="14.92" fill="#54a5d5"/><rect x="361.9" y="299.46" width="3.66" height="14.95" fill="#3f7ca0"/><polygon points="361.9 273.16 361.9 293.89 365.56 293.89 365.56 276.82 361.9 273.16" fill="#3f7ca0"/><rect x="361.9" y="250.7" width="3.66" height="14.92" fill="#54a5d5"/><polygon points="365.56 276.82 365.56 271.2 361.9 271.2 361.9 273.16 365.56 276.82" fill="#54a5d5"/><polygon points="369.22 280.47 369.22 293.89 372.88 293.89 372.88 284.13 369.22 280.47" fill="#3f7ca0"/><rect x="369.22" y="299.46" width="3.66" height="14.95" fill="#3f7ca0"/><rect x="369.22" y="250.7" width="3.66" height="14.92" fill="#54a5d5"/><polygon points="372.88 284.13 372.88 271.2 369.22 271.2 369.22 280.47 372.88 284.13" fill="#54a5d5"/><rect x="376.54" y="250.7" width="3.66" height="14.92" fill="#54a5d5"/><polygon points="376.54 287.79 380.2 291.45 380.2 271.2 376.54 271.2 376.54 287.79" fill="#54a5d5"/><rect x="376.54" y="299.46" width="3.66" height="14.95" fill="#3f7ca0"/><polygon points="376.54 287.79 376.54 293.89 380.2 293.89 380.2 291.45 376.54 287.79" fill="#3f7ca0"/><polygon points="384.41 295.66 384.41 293.89 382.63 293.89 384.41 295.66" fill="#e3e3e3"/><polygon points="382.63 293.89 380.2 293.89 376.54 293.89 372.88 293.89 369.22 293.89 365.56 293.89 361.9 293.89 358.25 293.89 354.58 293.89 350.93 293.89 347.27 293.89 343.61 293.89 339.96 293.89 336.3 293.89 332.64 293.89 328.55 293.89 328.55 299.46 332.64 299.46 336.3 299.46 339.96 299.46 343.61 299.46 347.27 299.46 350.93 299.46 354.58 299.46 358.25 299.46 361.9 299.46 365.56 299.46 369.22 299.46 372.88 299.46 376.54 299.46 380.2 299.46 384.41 299.46 384.41 295.66 382.63 293.89" fill="#ccc"/><polygon points="358.25 269.5 354.58 265.84 354.37 265.62 350.93 265.62 347.27 265.62 343.61 265.62 339.96 265.62 336.3 265.62 332.64 265.62 328.55 265.62 328.55 271.2 332.64 271.2 336.3 271.2 339.96 271.2 343.61 271.2 347.27 271.2 350.93 271.2 354.58 271.2 358.25 271.2 359.94 271.2 358.25 269.5" fill="#ccc"/><polygon points="380.2 265.62 376.54 265.62 372.88 265.62 369.22 265.62 365.56 265.62 361.9 265.62 358.25 265.62 354.58 265.62 354.37 265.62 354.58 265.84 358.25 269.5 359.94 271.2 361.9 271.2 365.56 271.2 369.22 271.2 372.88 271.2 376.54 271.2 380.2 271.2 384.41 271.2 384.41 265.62 380.2 265.62" fill="#e3e3e3"/><rect x="289.64" y="119.83" width="21.95" height="11.92" fill="#ccc"/><rect x="345.43" y="227.88" width="21.95" height="11.92" fill="#e3e3e3"/><polygon points="356.52 209.17 356.29 209.17 354.9 227.88 357.91 227.88 356.52 209.17" fill="#9d9d9d"/><polygon points="244.87 0 244.64 0 243.25 18.71 246.26 18.71 244.87 0" fill="#9d9d9d"/><rect x="240.92" y="18.71" width="3.84" height="3.15" fill="#e3e3e3"/><rect x="244.76" y="18.71" width="3.84" height="3.15" fill="#aaa"/><rect x="70.57" y="325.27" width="329.43" height="11.68" fill="#3f7ca0"/><rect x="79.45" y="336.95" width="311.68" height="23.52" fill="#aaa"/><rect x="70.57" y="319.91" width="90.39" height="5.36" fill="#e3e3e3"/><rect x="73.75" y="314.92" width="4.82" height="4.99" fill="#9cce7c"/><rect x="80.98" y="314.92" width="4.82" height="4.99" fill="#9cce7c"/><rect x="88.22" y="314.92" width="4.82" height="4.99" fill="#9cce7c"/><rect x="95.45" y="314.92" width="4.82" height="4.99" fill="#9cce7c"/><rect x="102.69" y="314.92" width="4.82" height="4.99" fill="#9cce7c"/><rect x="109.92" y="314.92" width="4.82" height="4.99" fill="#9cce7c"/><rect x="117.16" y="314.92" width="4.82" height="4.99" fill="#9cce7c"/><rect x="124.39" y="314.92" width="4.83" height="4.99" fill="#9cce7c"/><rect x="131.63" y="314.92" width="4.82" height="4.99" fill="#9cce7c"/><rect x="138.86" y="314.92" width="4.83" height="4.99" fill="#9cce7c"/><rect x="146.1" y="314.92" width="4.82" height="4.99" fill="#9cce7c"/><rect x="153.33" y="314.92" width="4.82" height="4.99" fill="#9cce7c"/><polygon points="391.12 336.95 79.45 336.95 86.25 343.75 391.12 343.75 391.12 336.95" fill="gray"/><rect x="136.66" y="336.95" width="24.29" height="23.47" fill="#3a3a3a"/><rect x="136.66" y="336.95" width="24.29" height="1.24" fill="#616161"/><rect x="136.66" y="339.42" width="24.29" height="1.23" fill="#616161"/><rect x="136.66" y="341.89" width="24.29" height="1.24" fill="#616161"/><rect x="136.66" y="344.36" width="24.29" height="1.23" fill="#616161"/><rect x="136.66" y="346.83" width="24.29" height="1.24" fill="#616161"/><rect x="136.66" y="349.3" width="24.29" height="1.23" fill="#616161"/><rect x="136.66" y="351.78" width="24.29" height="1.23" fill="#616161"/><rect x="136.66" y="354.25" width="24.29" height="1.23" fill="#616161"/><rect x="136.66" y="356.71" width="24.29" height="1.24" fill="#616161"/><rect x="136.66" y="359.18" width="24.29" height="1.23" fill="#616161"/></g></g></g></svg>